<?xml version="1.0" encoding="utf-8"?>
<svg width="41.4" height="29.17" viewBox="0 0 41.4 29.17" xmlns="http://www.w3.org/2000/svg">
  <defs>
    <style>.a{fill:#48494c;}</style>
  </defs>
  <path class="a" d="M40.534,8.1a5.2,5.2,0,0,0-3.66-3.685C33.646,3.545,20.7,3.545,20.7,3.545s-12.946,0-16.175.871A5.2,5.2,0,0,0,.866,8.1C0,11.351,0,18.13,0,18.13s0,6.779.866,10.029a5.2,5.2,0,0,0,3.66,3.685c3.227.871,16.173.871,16.173.871s12.946,0,16.175-.871a5.2,5.2,0,0,0,3.66-3.685c.864-3.25.864-10.029.864-10.029S41.4,11.351,40.534,8.1ZM16.465,24.285V11.975L27.286,18.13Z" transform="translate(0 -3.545)" style="fill: rgb(255, 255, 255);"/>
</svg>